<svg xmlns="http://www.w3.org/2000/svg" xmlns:xlink="http://www.w3.org/1999/xlink" width="2000" zoomAndPan="magnify" viewBox="0 0 1500 1499.999933" height="2000" preserveAspectRatio="xMidYMid meet" version="1.0"><defs><clipPath id="399355555a"><path d="M 118.183594 118.183594 L 1381.933594 118.183594 L 1381.933594 1381.933594 L 118.183594 1381.933594 Z M 118.183594 118.183594 " clip-rule="nonzero"/></clipPath></defs><path fill="#000000" d="M 876.816406 1013.996094 C 879.707031 1006.738281 881.160156 1006.460938 882.84375 1002.191406 C 885.585938 991.875 878.5 975.550781 885.289062 964.957031 C 890.148438 957.042969 884.171875 947.519531 891.277344 940.539062 C 900.496094 940.230469 910.519531 942.320312 920.03125 940.738281 C 924.101562 941.296875 930.277344 937.035156 932.871094 941.15625 C 946.628906 957.136719 943.886719 980.707031 933.976562 997.769531 C 931.058594 1004.386719 914.726562 1017.820312 931.414062 1017.128906 C 940.382812 1016.582031 951.855469 1016.367188 953.476562 1010.046875 C 954.269531 1008.246094 951.992188 1005.578125 954.515625 1004.425781 C 965.808594 998.363281 955.894531 983.503906 960.246094 973.644531 C 962.738281 961.5625 974.816406 949.632812 966.382812 937.4375 C 964.453125 933.800781 964.679688 932.136719 967.371094 929.019531 C 971.285156 927.375 982.160156 939.222656 986.683594 941.597656 C 988.015625 942.851562 988.851562 944.378906 989.1875 946.179688 C 991.257812 956.726562 1000.164062 964.289062 1000.054688 975.46875 C 1000.851562 984.242188 1000.453125 992.960938 998.859375 1001.625 C 996.601562 1006.035156 990.894531 1013.226562 993.820312 1017.609375 C 994.945312 1018.648438 996.273438 1019.230469 997.800781 1019.351562 C 1003.15625 1020.269531 1005.914062 1023.765625 1014.585938 1021.925781 C 1023.257812 1020.085938 1028.761719 1013.667969 1026.851562 1007.289062 C 1026.394531 1006.679688 1026.136719 1005.992188 1026.082031 1005.230469 C 1026.027344 1004.46875 1026.179688 1003.753906 1026.542969 1003.082031 C 1037.351562 987.785156 1017.042969 982.835938 1024.019531 940.222656 C 1023.460938 916.519531 998.679688 918.976562 1004.746094 885.054688 C 1005.949219 876.777344 1006.332031 868.464844 1005.886719 860.113281 C 1009.035156 849.507812 1013.726562 839.570312 1008.519531 828.449219 C 1003.449219 815.636719 988.308594 803.992188 970.609375 810.746094 C 951.394531 812.527344 933.6875 820.015625 914.921875 824.410156 C 898.320312 828.082031 881.625 827.863281 864.84375 826.332031 C 857.183594 827.113281 875.367188 808.09375 869.457031 806.480469 C 862.367188 800.617188 850.769531 804.382812 853.46875 797.667969 C 853.398438 793.5 857.140625 784.695312 850.421875 784.757812 C 842.957031 785.609375 836.050781 788.746094 831.699219 795.171875 C 830.945312 796.320312 830.34375 796.667969 828.75 795.957031 C 825.6875 794.613281 822.496094 793.730469 819.179688 793.296875 C 815.863281 792.867188 812.554688 792.90625 809.25 793.421875 C 802.386719 794.328125 795.90625 796.414062 789.800781 799.675781 C 779.367188 804.480469 767.777344 790.378906 757.351562 796.449219 C 750.496094 799.339844 744.640625 810.507812 749.839844 817.554688 C 751.207031 819.589844 749.058594 822.691406 750.386719 824.761719 C 753.195312 830.78125 762.132812 828.503906 764.71875 835.027344 C 771.300781 847.058594 783.578125 853.96875 789.066406 866.71875 C 800.410156 878.820312 816.011719 885.257812 814.59375 904.875 C 813.824219 921.328125 819.367188 939.765625 815.039062 953 C 812.417969 964.070312 818.433594 968.003906 815.910156 975.875 C 812.65625 989.070312 807.636719 998.390625 801.222656 1006.191406 C 797.898438 1012.566406 791.023438 1023.316406 801.222656 1024.191406 C 810.675781 1024.863281 820.175781 1024.328125 827.652344 1019.347656 C 833.097656 1015.46875 839.816406 1021.230469 840.074219 1026.300781 C 839.652344 1029.921875 860.039062 1031.089844 869.539062 1028.359375 C 877.601562 1025.957031 874.03125 1020.964844 876.816406 1013.996094 Z M 842.46875 1004.925781 C 839.535156 998.953125 841.476562 991.699219 840.171875 985.203125 C 838.796875 974.679688 844.398438 965.558594 847.675781 955.90625 C 848.070312 954.867188 848.179688 953.449219 849.910156 954.3125 C 851.117188 954.894531 853.503906 954.195312 852.722656 956.925781 C 851.867188 965.816406 859.699219 975.726562 855.71875 985.574219 C 854.183594 992.210938 851.527344 998.605469 850.1875 1005.296875 C 850.167969 1005.578125 850.097656 1005.847656 849.980469 1006.105469 C 849.863281 1006.363281 849.703125 1006.589844 849.503906 1006.789062 C 849.304688 1006.988281 849.074219 1007.148438 848.816406 1007.261719 C 848.558594 1007.378906 848.289062 1007.445312 848.007812 1007.464844 C 844.34375 1008.234375 844.234375 1008.113281 842.464844 1004.925781 Z M 842.46875 1004.925781 " fill-opacity="1" fill-rule="nonzero"/><path fill="#000000" d="M 1075.863281 1028.945312 C 1047.320312 1026.71875 1018.1875 1027.648438 989.839844 1024.441406 C 991.492188 1024.171875 1000.28125 1023.894531 1002.074219 1023.828125 C 988.34375 1021.015625 987.285156 1015.332031 994.007812 1004.0625 L 967.429688 1004.003906 C 944.554688 1002.300781 972.199219 1019.796875 930.003906 1020.144531 C 919.355469 1020.925781 918.878906 1010.867188 926.132812 1004.015625 L 912.238281 1004.023438 L 885.292969 1004.054688 C 873.851562 1018.828125 885.222656 1031.609375 861.101562 1032.667969 C 931.707031 1032.421875 1002.3125 1032.332031 1072.910156 1031.875 C 1074.84375 1032.503906 1078.753906 1030.777344 1075.863281 1028.945312 Z M 1075.863281 1028.945312 " fill-opacity="1" fill-rule="nonzero"/><path fill="#000000" d="M 837.109375 1025.984375 C 832.347656 1013.757812 823.996094 1030.816406 800.960938 1027.152344 C 788.300781 1025.984375 793.449219 1013.203125 798.21875 1005.492188 C 800.566406 1002.085938 791.042969 1004.460938 777.582031 1003.855469 C 754.617188 1002.71875 727.914062 1006.34375 706.394531 1002.847656 C 688.597656 986.359375 685.4375 960.816406 681.796875 938.046875 C 676.066406 905.609375 687.003906 883.808594 697.890625 854.769531 C 700.59375 849.800781 698.867188 837.511719 704.828125 836.097656 C 710.125 835.925781 716.320312 830.601562 719.835938 836.886719 C 722.011719 840.96875 724.855469 846.589844 730.347656 844.402344 C 740.828125 841.304688 727.933594 827.730469 738.085938 824.789062 C 742.878906 819.523438 747.371094 828.613281 747.402344 819.265625 C 741.175781 811.265625 747.390625 797.351562 756.09375 793.761719 C 765.328125 789.097656 774.75 795.324219 783.71875 797.8125 C 798.515625 794.058594 813.679688 785.296875 829.535156 793.070312 C 833.753906 786.882812 841.859375 782.425781 850.582031 781.792969 C 860.054688 781.535156 856.9375 793.316406 856.261719 798.933594 C 861.597656 799.460938 866.535156 801.148438 871.074219 804 C 877.890625 807 869.011719 817.4375 867.28125 822.386719 C 869.222656 825.851562 881.367188 823.503906 885.660156 824.417969 C 904.46875 824.664062 920.800781 820.503906 937.597656 815.019531 C 944.558594 774.554688 947.65625 786.910156 962.710938 755.929688 C 971.945312 727.914062 997.144531 692.457031 1029.582031 696.882812 C 1036.878906 707.664062 1052.992188 706.84375 1054.179688 713.753906 C 1060.078125 726.386719 1073.371094 731.992188 1086.695312 731.269531 C 1096.148438 730.160156 1105.558594 723.011719 1115.023438 718.574219 C 1127.496094 711.210938 1130.367188 689.445312 1120.171875 678.933594 C 1107.75 668.832031 1108.117188 651.277344 1103.265625 637.179688 C 1097.101562 622.890625 1114.015625 613.03125 1109.503906 598.75 C 1108.769531 595.855469 1108.96875 595.6875 1111.816406 595.28125 C 1126.425781 593.1875 1137.167969 585.273438 1144.550781 572.835938 C 1147.625 565.789062 1156.449219 554.144531 1146.988281 548.976562 C 1110.035156 527.59375 1091.21875 565.679688 1089.191406 554.589844 C 1087.390625 551.984375 1088.351562 549.738281 1089.636719 547.410156 C 1106.355469 521.96875 1082.492188 498.570312 1068.1875 478.699219 C 1053.6875 465.332031 1075.171875 514.519531 1072.472656 519.332031 C 1072.871094 522.710938 1069.445312 533.53125 1064.371094 529.976562 C 1055.453125 522.925781 1050.796875 531.035156 1042.367188 530.535156 C 1030.84375 525.960938 1027.765625 537.382812 1018.449219 540.089844 C 1015.796875 540.648438 1015.273438 541.1875 1014.582031 538.554688 C 1013.34375 534.195312 1015.066406 529.757812 1016.398438 525.621094 C 1022.148438 508.511719 1018.613281 493.007812 1008.292969 478.691406 C 1006.335938 475.96875 1004.34375 474.988281 1002.84375 475.976562 C 1000.804688 477.324219 1001.25 479.363281 1001.707031 481.335938 C 1009.265625 511.292969 978.417969 517.097656 983.582031 543.867188 C 983.890625 545.460938 983.523438 545.886719 981.890625 545.292969 C 966.144531 540.253906 951.226562 532.964844 935.972656 526.628906 C 914.394531 515.769531 890.886719 523.007812 868.339844 525.957031 C 837.320312 531.394531 806.050781 532.847656 774.589844 532.402344 C 758.492188 532.613281 742.476562 531.53125 726.554688 529.164062 C 697.160156 525.492188 662.871094 509.128906 636.367188 529.660156 C 635.914062 530.074219 635.386719 530.328125 634.78125 530.417969 C 634.175781 530.511719 633.597656 530.425781 633.042969 530.164062 C 612.699219 521.570312 605.136719 531.304688 586.589844 535.015625 C 526.550781 546.976562 506.765625 613.804688 485.054688 663 C 474.792969 688.039062 465.960938 716.464844 475.335938 743.1875 C 478.601562 757.117188 494.675781 767.542969 489.320312 782.710938 C 481.273438 802.859375 469.226562 826.828125 486.332031 845.96875 C 493.4375 854.96875 504.445312 859.226562 512.640625 866.898438 C 521.863281 876.433594 517.15625 891.777344 505.328125 896.226562 C 533.390625 898.019531 525.085938 861.847656 530.816406 876.378906 C 531.746094 862.242188 524.589844 846.796875 535.050781 834.289062 C 548.285156 815.867188 538.84375 796.46875 526.488281 780.597656 L 502.765625 744.808594 C 483.484375 715.519531 507.121094 682.125 520.058594 655.132812 C 521.167969 653.363281 521.34375 654.847656 521.433594 656.273438 C 521.601562 669.320312 523.433594 682.128906 526.929688 694.699219 C 539.78125 740.660156 584.386719 793.074219 544.269531 837.804688 C 527.5625 857.164062 555.980469 902.332031 554.386719 930.210938 C 555.335938 941.671875 556.15625 953.132812 554.039062 964.589844 C 552.503906 972.558594 552.277344 982.253906 560.214844 986.898438 C 560.558594 987.074219 560.867188 987.300781 561.140625 987.574219 C 561.414062 987.847656 561.640625 988.152344 561.820312 988.496094 C 561.996094 988.839844 562.117188 989.203125 562.183594 989.582031 C 562.25 989.964844 562.257812 990.347656 562.207031 990.730469 C 561.027344 994.542969 564.285156 1004.757812 560.40625 1005.304688 C 535.570312 1005.679688 510.703125 1005.007812 485.890625 1006.203125 C 483.355469 1007.304688 486.449219 1008.859375 488.253906 1008.421875 C 511.84375 1009.382812 535.460938 1009.34375 559.058594 1009.53125 C 560.035156 1009.542969 561.382812 1008.917969 561.484375 1010.820312 C 561.542969 1015.550781 554.832031 1012.847656 551.84375 1013.640625 C 529.460938 1014.777344 505.675781 1011.90625 483.949219 1015.316406 C 480.425781 1020.980469 499.222656 1020.308594 501.332031 1020.289062 C 536.519531 1019.890625 571.679688 1021.503906 606.835938 1022.664062 C 622.457031 1023.179688 638.070312 1023.703125 653.683594 1024.238281 C 662.265625 1025.742188 624.40625 1025.851562 619.714844 1026.332031 C 343.394531 1034.601562 799.972656 1033.074219 850.867188 1032.699219 C 844.769531 1032.023438 837.246094 1031.875 837.109375 1025.984375 Z M 653.28125 1002.390625 C 653.308594 1003.847656 652.28125 1004.113281 651.003906 1004.113281 C 639.144531 1004.082031 627.285156 1004.0625 615.429688 1004.125 C 586.03125 974.449219 584.410156 925.738281 591.816406 886.183594 C 596.46875 864.855469 609.398438 846.3125 611.871094 824.390625 C 612.039062 818.382812 616.414062 814.964844 615.96875 823.480469 C 614.722656 829.609375 613.097656 838.894531 622.332031 838.042969 C 630.15625 836.015625 609.367188 857.589844 618.988281 875.480469 C 633.992188 905.628906 645.78125 938.332031 645.265625 972.449219 C 644.179688 981.898438 641.972656 993.441406 652.355469 998.585938 C 654.417969 999.675781 653.238281 1001.105469 653.28125 1002.390625 Z M 653.28125 1002.390625 " fill-opacity="1" fill-rule="nonzero"/><path fill="#000000" d="M 1153.980469 1006.132812 C 1130.929688 1005.28125 1107.855469 1005.402344 1084.792969 1004.894531 L 1047.367188 1004.273438 L 1043.578125 1004.210938 C 1039.300781 1004.910156 1031.570312 1002.300781 1029.054688 1005.222656 C 1032.699219 1012.210938 1027.265625 1020.132812 1020.394531 1023.109375 C 1025.890625 1022.902344 1031.378906 1022.714844 1036.863281 1022.550781 C 1054.808594 1022.007812 1072.757812 1021.503906 1090.710938 1021.039062 C 1097.679688 1020.839844 1104.644531 1020.652344 1111.605469 1020.476562 C 1117.675781 1020.320312 1124.296875 1020.855469 1130.097656 1018.726562 C 1132.582031 1017.804688 1131.234375 1016.707031 1129.382812 1016.0625 C 1123.945312 1014.410156 1118.386719 1013.660156 1112.703125 1013.816406 C 1106.546875 1013.746094 1100.386719 1013.679688 1094.214844 1013.617188 C 1092.890625 1013.605469 1085.207031 1014.003906 1085.742188 1011.320312 C 1085.921875 1010.4375 1087.761719 1010.160156 1088.425781 1010.011719 C 1093.597656 1009.121094 1098.804688 1008.722656 1104.054688 1008.824219 C 1111.429688 1008.648438 1118.800781 1008.65625 1126.175781 1008.65625 C 1132.847656 1008.65625 1139.519531 1008.695312 1146.179688 1008.480469 C 1147.199219 1008.449219 1155.101562 1008.757812 1155.445312 1007.25 C 1155.585938 1006.636719 1154.378906 1006.28125 1153.980469 1006.132812 Z M 1153.980469 1006.132812 " fill-opacity="1" fill-rule="nonzero"/><g clip-path="url(#399355555a)"><path fill="#000000" d="M 1241.519531 118.183594 L 258.601562 118.183594 C 180.992188 118.183594 118.183594 181.0625 118.183594 258.601562 L 118.183594 1241.519531 C 118.183594 1319.042969 180.992188 1381.933594 258.601562 1381.933594 L 1241.519531 1381.933594 C 1319.125 1381.933594 1381.933594 1319.042969 1381.933594 1241.519531 L 1381.933594 258.601562 C 1381.933594 181.0625 1319.125 118.183594 1241.519531 118.183594 Z M 1367.894531 1241.519531 C 1367.894531 1311.320312 1311.375 1367.894531 1241.519531 1367.894531 L 258.601562 1367.894531 C 188.746094 1367.894531 132.226562 1311.320312 132.226562 1241.519531 L 132.226562 258.601562 C 132.226562 188.800781 188.746094 132.226562 258.601562 132.226562 L 1241.519531 132.226562 C 1311.375 132.226562 1367.894531 188.800781 1367.894531 258.601562 Z M 1367.894531 1241.519531 " fill-opacity="1" fill-rule="nonzero"/></g></svg>